<svg  height="140" viewBox="0 0 740 1008" fill="none" xmlns="http://www.w3.org/2000/svg">
<path d="M236.222 968.41C239.486 968.41 242.444 968.053 245.096 967.339C247.748 966.625 250.247 965.707 252.593 964.585L254.276 970.093C251.522 971.521 248.615 972.541 245.555 973.153C242.597 973.867 239.18 974.224 235.304 974.224C230.51 974.224 225.971 973.459 221.687 971.929C217.505 970.399 213.782 968.104 210.518 965.044C207.356 961.984 204.806 958.159 202.868 953.569C201.032 948.877 200.114 943.42 200.114 937.198C200.114 931.486 200.981 926.335 202.715 921.745C204.449 917.155 206.897 913.279 210.059 910.117C213.221 906.853 216.893 904.405 221.075 902.773C225.359 901.039 230.051 900.172 235.151 900.172C238.313 900.172 241.373 900.427 244.331 900.937C247.289 901.345 250.502 902.365 253.97 903.997L252.134 910.27C249.38 908.842 246.728 907.873 244.178 907.363C241.73 906.853 239.18 906.598 236.528 906.598C232.346 906.598 228.521 907.312 225.053 908.74C221.585 910.168 218.627 912.208 216.179 914.86C213.731 917.41 211.793 920.572 210.365 924.346C209.039 928.018 208.376 932.149 208.376 936.739C208.376 942.859 209.192 947.959 210.824 952.039C212.456 956.017 214.547 959.23 217.097 961.678C219.749 964.126 222.707 965.86 225.971 966.88C229.337 967.9 232.754 968.41 236.222 968.41ZM268.333 907.363C273.127 904.813 277.513 902.977 281.491 901.855C285.571 900.733 289.906 900.172 294.496 900.172C297.76 900.172 300.82 900.631 303.676 901.549C306.634 902.467 309.184 903.946 311.326 905.986C313.57 908.026 315.304 910.729 316.528 914.095C317.854 917.359 318.517 921.388 318.517 926.182V973H313.009L311.326 963.514H311.02C308.062 967.084 304.594 969.787 300.616 971.623C296.638 973.357 292.201 974.224 287.305 974.224C283.939 974.224 280.828 973.765 277.972 972.847C275.116 971.827 272.617 970.399 270.475 968.563C268.435 966.727 266.803 964.534 265.579 961.984C264.457 959.332 263.896 956.425 263.896 953.263C263.896 949.489 264.661 946.174 266.191 943.318C267.721 940.462 269.863 938.116 272.617 936.28C275.371 934.342 278.635 932.914 282.409 931.996C286.285 931.078 290.569 930.619 295.261 930.619H310.561V925.876C310.561 918.94 309.031 913.993 305.971 911.035C302.911 908.077 298.933 906.598 294.037 906.598C291.079 906.598 287.662 907.057 283.786 907.975C279.91 908.893 275.779 910.576 271.393 913.024L268.333 907.363ZM310.561 936.892L297.862 937.045C293.272 937.147 289.345 937.657 286.081 938.575C282.817 939.391 280.114 940.513 277.972 941.941C275.932 943.267 274.453 944.899 273.535 946.837C272.617 948.673 272.158 950.662 272.158 952.804C272.158 955.456 272.617 957.751 273.535 959.689C274.453 961.525 275.677 963.055 277.207 964.279C278.737 965.503 280.522 966.421 282.562 967.033C284.704 967.543 286.948 967.798 289.294 967.798C291.13 967.798 293.017 967.594 294.955 967.186C296.893 966.676 298.78 965.962 300.616 965.044C302.554 964.024 304.39 962.8 306.124 961.372C307.858 959.842 309.337 958.006 310.561 955.864V936.892ZM370.993 968.41C374.257 968.41 377.215 968.053 379.867 967.339C382.519 966.625 385.018 965.707 387.364 964.585L389.047 970.093C386.293 971.521 383.386 972.541 380.326 973.153C377.368 973.867 373.951 974.224 370.075 974.224C365.281 974.224 360.742 973.459 356.458 971.929C352.276 970.399 348.553 968.104 345.289 965.044C342.127 961.984 339.577 958.159 337.639 953.569C335.803 948.877 334.885 943.42 334.885 937.198C334.885 931.486 335.752 926.335 337.486 921.745C339.22 917.155 341.668 913.279 344.83 910.117C347.992 906.853 351.664 904.405 355.846 902.773C360.13 901.039 364.822 900.172 369.922 900.172C373.084 900.172 376.144 900.427 379.102 900.937C382.06 901.345 385.273 902.365 388.741 903.997L386.905 910.27C384.151 908.842 381.499 907.873 378.949 907.363C376.501 906.853 373.951 906.598 371.299 906.598C367.117 906.598 363.292 907.312 359.824 908.74C356.356 910.168 353.398 912.208 350.95 914.86C348.502 917.41 346.564 920.572 345.136 924.346C343.81 928.018 343.147 932.149 343.147 936.739C343.147 942.859 343.963 947.959 345.595 952.039C347.227 956.017 349.318 959.23 351.868 961.678C354.52 964.126 357.478 965.86 360.742 966.88C364.108 967.9 367.525 968.41 370.993 968.41ZM414.102 973H406.146V864.37H414.102V910.729C417.468 907.669 421.191 905.17 425.271 903.232C429.351 901.192 433.839 900.172 438.735 900.172C442.713 900.172 446.181 900.784 449.139 902.008C452.097 903.13 454.494 904.762 456.33 906.904C458.268 908.944 459.696 911.392 460.614 914.248C461.634 917.002 462.144 920.062 462.144 923.428V973H454.188V925.876C454.188 918.838 452.607 913.891 449.445 911.035C446.283 908.077 442.101 906.598 436.899 906.598C433.227 906.598 429.402 907.618 425.424 909.658C421.446 911.596 417.672 914.248 414.102 917.614V973ZM539.786 937.045H488.531V939.187C488.531 948.163 490.928 955.201 495.722 960.301C500.618 965.299 507.248 967.798 515.612 967.798C522.242 967.798 528.464 966.676 534.278 964.432L536.114 970.552C533.462 971.674 530.249 972.541 526.475 973.153C522.803 973.867 519.029 974.224 515.153 974.224C510.359 974.224 505.82 973.51 501.536 972.082C497.354 970.654 493.682 968.461 490.52 965.503C487.358 962.443 484.859 958.618 483.023 954.028C481.187 949.336 480.269 943.726 480.269 937.198C480.269 931.588 481.034 926.488 482.564 921.898C484.094 917.308 486.287 913.432 489.143 910.27C491.999 907.006 495.365 904.507 499.241 902.773C503.117 901.039 507.452 900.172 512.246 900.172C516.326 900.172 520.049 900.937 523.415 902.467C526.883 903.895 529.79 905.986 532.136 908.74C534.584 911.494 536.471 914.809 537.797 918.685C539.123 922.561 539.786 926.845 539.786 931.537V937.045ZM531.524 930.619C531.524 927.661 531.167 924.754 530.453 921.898C529.739 918.94 528.566 916.339 526.934 914.095C525.404 911.851 523.364 910.066 520.814 908.74C518.366 907.312 515.357 906.598 511.787 906.598C505.565 906.598 500.363 908.689 496.181 912.871C492.101 917.053 489.653 922.969 488.837 930.619H531.524Z" fill="#777"/>
<path d="M0 370C0 70 173 0 370 0C567 0 740 70 740 370C740 670 567 740 370 740C173 740 0 670 0 370Z" fill="#FAFA00"/>
<path d="M413.6 545.2C412.2 538.2 411.267 532.367 410.8 527.7C410.8 522.567 410.567 516.733 410.1 510.2C394.233 526.067 377.2 537.733 359 545.2C341.267 552.667 322.833 556.4 303.7 556.4C271.967 556.4 247.467 547.767 230.2 530.5C213.4 513.233 205 492 205 466.8C205 444.4 211.067 425.5 223.2 410.1C235.333 394.233 251.2 381.4 270.8 371.6C290.4 361.333 312.1 353.633 335.9 348.5C359.7 342.9 383.267 339.867 406.6 339.4V300.9C406.6 287.367 404.967 275 401.7 263.8C398.9 252.133 393.533 243.033 385.6 236.5C377.667 229.5 366 226 350.6 226C340.333 226.467 329.833 228.8 319.1 233C308.833 236.733 300.667 242.8 294.6 251.2C298.333 255.4 300.667 260.067 301.6 265.2C302.533 269.867 303 274.067 303 277.8C303 286.2 299.733 295.067 293.2 304.4C286.667 313.267 276.167 317.467 261.7 317C249.1 316.533 239.3 312.1 232.3 303.7C225.767 295.3 222.5 285.267 222.5 273.6C222.5 255.867 228.8 240.467 241.4 227.4C254.467 213.867 271.967 203.367 293.9 195.9C315.833 187.967 340.333 184 367.4 184C407.533 184 438.333 194.5 459.8 215.5C481.267 236.5 491.767 270.1 491.3 316.3C491.3 332.633 491.3 347.567 491.3 361.1C491.3 374.167 491.067 387.467 490.6 401C490.6 414.067 490.6 428.767 490.6 445.1C490.6 452.1 490.367 460.967 489.9 471.7C489.433 481.967 488.733 492.233 487.8 502.5C496.2 501.567 504.6 501.1 513 501.1C521.867 500.633 529.1 500.167 534.7 499.7V545.2H413.6ZM405.9 380.7C391.9 381.633 378.133 383.967 364.6 387.7C351.067 390.967 338.933 395.633 328.2 401.7C317.467 407.767 308.833 415.467 302.3 424.8C296.233 433.667 293.433 443.933 293.9 455.6C294.367 470.067 299.033 480.8 307.9 487.8C316.767 494.333 327.033 497.6 338.7 497.6C352.233 497.6 364.367 494.8 375.1 489.2C386.3 483.6 396.567 476.133 405.9 466.8C405.9 462.133 405.9 457.233 405.9 452.1C405.9 446.967 405.9 441.833 405.9 436.7C405.9 430.167 405.9 422 405.9 412.2C405.9 402.4 405.9 391.9 405.9 380.7Z" fill="white"/>
</svg>
